<svg width="512" height="512" viewBox="0 0 512 512" fill="none" xmlns="http://www.w3.org/2000/svg">
<g clip-path="url(#clip0_3311_6)">
<path d="M304.438 1.49998C308.19 5.16049 310.494 8.70988 311.301 13.957C311.147 20.1515 307.967 25.2301 305.158 30.5788C298.296 43.903 295.988 58.2796 294 73C294.793 73.0142 295.586 73.0283 296.402 73.0429C325.053 74.2143 354.502 82.322 376 102C376.802 102.732 377.604 103.464 378.43 104.219C401.691 126.462 410.923 160.343 412.1 191.663C412.147 194.37 412.164 197.074 412.168 199.781C412.172 200.78 412.176 201.779 412.181 202.809C412.191 206.039 412.191 209.27 412.188 212.5C412.187 213.613 412.186 214.725 412.186 215.871C412.157 235.312 411.644 254.628 410 274C409.937 274.747 409.874 275.495 409.809 276.265C403.465 350.224 389.731 437.469 330.309 488.451C317.32 499.029 301.337 506.449 285 510C284.241 510.174 283.482 510.349 282.7 510.529C274.594 512.225 266.557 512.356 258.313 512.312C257.604 512.311 256.896 512.309 256.166 512.307C231.896 512.202 213.092 506.792 195.553 489.103C153.232 444.195 144.636 367.717 141 309C140.957 308.309 140.914 307.619 140.87 306.908C140.067 293.679 139.875 280.5 139.938 267.25C139.943 265.366 139.947 263.482 139.951 261.598C139.962 257.065 139.979 252.533 140 248C139.275 248.162 138.55 248.323 137.802 248.489C133.416 249.289 129.073 249.184 124.625 249.187C123.705 249.2 122.784 249.212 121.836 249.225C109.722 249.251 109.722 249.251 105.039 245.379C104.572 244.779 104.106 244.18 103.625 243.562C102.902 242.667 102.902 242.667 102.164 241.754C95.7102 232.03 100.382 212.365 102.452 201.597C109.224 169.493 124.52 142.644 147 119C147.63 118.305 148.261 117.61 148.91 116.895C176.716 87.2556 218.585 73.5398 258.223 72.1133C260.092 72.0572 260.092 72.0572 262 72C262.06 71.4487 262.119 70.8975 262.18 70.3296C264.291 51.4728 267.928 33.7689 276 16.5C276.403 15.6336 276.806 14.7673 277.221 13.8747C279.816 8.6089 282.534 4.83537 287 0.999975C292.778 -0.926004 298.852 -0.937212 304.438 1.49998ZM167.466 142.516C149.565 160.643 132.364 189.558 131.957 215.77C131.971 216.506 131.985 217.242 132 218C168.689 217.06 201.16 203.258 227 177C241.39 161.447 251.544 143.384 257.438 123.062C257.685 122.211 257.932 121.359 258.186 120.482C259.77 114.68 260.579 108.996 261 103C225.375 103 192.698 117.733 167.466 142.516ZM292 104C291.858 104.866 291.858 104.866 291.712 105.75C285.539 142.744 271.76 175.093 245 202C244.293 202.713 244.293 202.713 243.572 203.44C226.743 220.17 206.946 231.136 184.848 239.238C184.034 239.538 183.221 239.838 182.383 240.147C180.808 240.711 179.223 241.248 177.628 241.755C175.192 242.521 175.192 242.521 172 244C170.373 247.689 170.838 252.01 170.832 255.98C170.828 256.773 170.824 257.565 170.819 258.381C170.809 260.983 170.809 263.585 170.813 266.187C170.813 267.082 170.814 267.977 170.814 268.899C170.927 330.51 173.224 421.89 219 468C220.091 469.129 220.091 469.129 221.203 470.281C232.521 481.203 246.818 481.899 261.879 482.035C286.625 480.881 306.829 469.011 323.5 451.375C367.04 401.561 376.42 322.711 380 259C380.041 258.289 380.082 257.579 380.124 256.847C380.874 243.585 381.215 230.344 381.24 217.061C381.25 214.002 381.281 210.942 381.313 207.883C381.466 179.239 377.741 148.574 357 127C340.817 111.198 316.488 104.225 294.211 103.968C293.117 103.984 293.117 103.984 292 104Z" fill="url(#paint0_linear_3311_6)"/>
</g>
<defs>
<linearGradient id="paint0_linear_3311_6" x1="98.873" y1="-0.391357" x2="99" y2="615" gradientUnits="userSpaceOnUse">
<stop stop-color="#1FD65C"/>
<stop offset="0.33" stop-color="#FFD400"/>
<stop offset="0.66" stop-color="#FF7A00"/>
<stop offset="1" stop-color="#FF2B2B"/>
</linearGradient>
<clipPath id="clip0_3311_6">
<rect width="512" height="512" fill="white"/>
</clipPath>
</defs>
</svg>
